HIERARCHY
ROOT Hips
{
	OFFSET -0.001795 -0.223333 0.028219
	CHANNELS 6 Xposition Yposition Zposition Zrotation Yrotation Xrotation 
	JOINT LeftUpLeg
	{
		OFFSET 0.069520 -0.091406 -0.006815
		CHANNELS 3 Zrotation Yrotation Xrotation
		JOINT LeftLeg
		{
			OFFSET 0.034277 -0.375199 -0.004496
			CHANNELS 3 Zrotation Yrotation Xrotation
			JOINT LeftFoot
			{
				OFFSET -0.013596 -0.397961 -0.043693
				CHANNELS 3 Zrotation Yrotation Xrotation
				JOINT LeftToe
				{
					OFFSET 0.026358 -0.055791 0.119288
					CHANNELS 3 Zrotation Yrotation Xrotation
					End Site
					{
						OFFSET 0.000000 0.000000 0.000000
					}
				}
			}
		}
	}
	JOINT RightUpLeg
	{
		OFFSET -0.067670 -0.090522 -0.004320
		CHANNELS 3 Zrotation Yrotation Xrotation
		JOINT RightLeg
		{
			OFFSET -0.038290 -0.382569 -0.008850
			CHANNELS 3 Zrotation Yrotation Xrotation
			JOINT RightFoot
			{
				OFFSET 0.015774 -0.398415 -0.042312
				CHANNELS 3 Zrotation Yrotation Xrotation
				JOINT RightToe
				{
					OFFSET -0.025372 -0.048144 0.123348
					CHANNELS 3 Zrotation Yrotation Xrotation
					End Site
					{
						OFFSET 0.000000 0.000000 0.000000
					}
				}
			}
		}
	}
	JOINT Spine
	{
		OFFSET -0.002533 0.108963 -0.026696
		CHANNELS 3 Zrotation Yrotation Xrotation
		JOINT Spine1
		{
			OFFSET 0.005487 0.135180 0.001092
			CHANNELS 3 Zrotation Yrotation Xrotation
			JOINT Spine2
			{
				OFFSET 0.001457 0.052922 0.025425
				CHANNELS 3 Zrotation Yrotation Xrotation
				JOINT Neck
				{
					OFFSET -0.002778 0.213870 -0.042857
					CHANNELS 3 Zrotation Yrotation Xrotation
					JOINT Head
					{
						OFFSET 0.005152 0.064970 0.051349
						CHANNELS 3 Zrotation Yrotation Xrotation
						End Site
						{
							OFFSET 0.000000 0.000000 0.000000
						}
					}
				}
				JOINT LeftShoulder
				{
					OFFSET 0.078845 0.121749 -0.034090
					CHANNELS 3 Zrotation Yrotation Xrotation
					JOINT LeftArm
					{
						OFFSET 0.090977 0.030469 -0.008868
						CHANNELS 3 Zrotation Yrotation Xrotation
						JOINT LeftForeArm
						{
							OFFSET 0.259612 -0.012772 -0.027456
							CHANNELS 3 Zrotation Yrotation Xrotation
							JOINT LeftHand
							{
								OFFSET 0.249234 0.008986 -0.001171
								CHANNELS 3 Zrotation Yrotation Xrotation
								End Site
								{
									OFFSET 0.000000 0.000000 0.000000
								}
							}
						}
					}
				}
				JOINT RightShoulder
				{
					OFFSET -0.081759 0.118833 -0.038615
					CHANNELS 3 Zrotation Yrotation Xrotation
					JOINT RightArm
					{
						OFFSET -0.096012 0.032551 -0.009143
						CHANNELS 3 Zrotation Yrotation Xrotation
						JOINT RightForeArm
						{
							OFFSET -0.253742 -0.013329 -0.021401
							CHANNELS 3 Zrotation Yrotation Xrotation
							JOINT RightHand
							{
								OFFSET -0.255298 0.007772 -0.005559
								CHANNELS 3 Zrotation Yrotation Xrotation
								End Site
								{
									OFFSET 0.000000 0.000000 0.000000
								}
							}
						}
					}
				}
			}
		}
	}
}
MOTION
Frames: 7
Frame Time: 0.050000
-0.194683 0.936867 1.636134 0.059698 -12.975782 -2.219901 1.541412 -0.823145 -12.486829 -6.298330 3.879776 36.878273 11.274126 22.960474 2.241797 0.000000 0.000000 0.000000 4.465196 -0.342020 1.590247 2.164087 0.024245 6.179122 -6.160365 -12.951624 -3.959683 0.000000 0.000000 0.000000 1.321730 -0.220620 4.513035 0.361278 -0.151061 1.772264 2.363803 -2.112338 6.839427 -1.317518 1.174394 -23.584005 0.000000 0.000000 0.000000 -19.991426 -0.107038 0.578337 -49.581101 -20.334280 1.691584 -152.665662 -68.805109 153.594993 0.000000 0.000000 0.000000 13.453651 5.064451 -0.534895 51.242441 6.134853 -2.372688 130.961308 57.797655 97.738742 0.000000 0.000000 0.000000 
-0.202223 0.936198 1.650703 0.316820 -14.224826 -2.783331 0.457023 -1.152608 -16.412695 -4.686854 3.438046 38.145451 10.333250 21.057579 2.224551 0.000000 0.000000 0.000000 4.572231 -0.555409 3.384308 1.619666 0.089040 5.841967 -5.677434 -11.247151 -4.645157 0.000000 0.000000 0.000000 1.262624 -0.213120 4.477714 0.051147 0.010891 1.809558 2.254519 -0.754810 7.040742 -0.980784 1.058036 -22.920149 0.000000 0.000000 0.000000 -19.126936 -0.435068 0.567517 -50.670126 -21.872034 2.566235 -157.689705 -69.921862 160.805983 0.000000 0.000000 0.000000 13.590927 5.361217 -0.278997 51.874298 7.703204 -1.795621 132.583074 59.400145 102.478235 0.000000 0.000000 0.000000 
-0.209465 0.936201 1.666110 0.761628 -15.360256 -3.348673 -1.092563 -1.542205 -19.451645 -3.614594 2.651968 34.572141 8.814200 18.098589 1.847705 0.000000 0.000000 0.000000 4.502798 -0.764531 5.402640 0.922674 0.171520 5.614407 -5.330093 -9.874823 -5.231581 0.000000 0.000000 0.000000 1.117119 -0.211561 4.686769 -0.878991 0.464729 1.372936 2.880562 0.500460 7.583295 -1.493964 1.401739 -23.297453 0.000000 0.000000 0.000000 -18.633131 -0.607841 0.550696 -51.791305 -23.518218 3.475952 -163.470900 -69.731959 168.724715 0.000000 0.000000 0.000000 13.713814 5.875365 0.036824 52.668896 9.316398 -1.191841 132.131160 59.961727 102.959385 0.000000 0.000000 0.000000 
-0.216748 0.935272 1.682943 0.843362 -16.403239 -3.311561 -2.356993 -1.881919 -22.093991 -2.394988 1.559785 28.070621 6.588404 13.639178 3.703654 0.000000 0.000000 0.000000 4.649352 -0.916328 6.820002 0.666924 0.184048 5.175701 -5.139083 -8.969684 -5.663682 0.000000 0.000000 0.000000 0.760161 -0.195633 4.651458 -1.055325 0.547927 1.149750 3.118272 2.365642 7.894724 -1.615646 1.625643 -23.367996 0.000000 0.000000 0.000000 -18.203877 -1.421226 0.702458 -52.911685 -24.278691 4.035760 -168.583552 -68.694646 175.162961 0.000000 0.000000 0.000000 13.712865 6.100288 0.397642 53.883982 10.659791 -0.701803 133.971624 60.102642 106.689048 0.000000 0.000000 0.000000 
-0.224552 0.932927 1.701873 0.816391 -17.698905 -3.070398 -3.689574 -2.183915 -23.770081 -0.597685 0.486528 21.163127 4.971673 10.502667 5.149985 0.000000 0.000000 0.000000 5.109647 -1.086951 8.224352 0.213687 0.199230 4.430351 -5.062149 -8.086159 -6.417510 0.000000 0.000000 0.000000 0.427069 -0.192235 5.052039 -1.465706 0.741341 0.834853 3.470112 3.553176 8.142640 -1.833069 1.818693 -24.365912 0.000000 0.000000 0.000000 -16.950348 -0.348412 0.034139 -55.390680 -25.128453 4.934755 -170.890622 -66.795901 178.278619 0.000000 0.000000 0.000000 12.602793 6.649894 0.853481 55.128053 12.688718 0.143057 136.296049 59.391967 109.396505 0.000000 0.000000 0.000000 
-0.233049 0.928008 1.724166 0.853914 -17.825717 -2.699811 -5.377984 -2.584659 -24.615332 1.392040 -0.360144 13.280872 2.883360 6.652495 6.051702 0.000000 0.000000 0.000000 5.410762 -1.254736 9.628489 0.262438 0.148568 3.586977 -5.548129 -8.703421 -7.391621 0.000000 0.000000 0.000000 -0.212406 -0.167540 5.332234 -1.988173 0.940840 -0.224300 4.436047 3.938743 9.050119 -2.223117 1.999950 -23.688048 0.000000 0.000000 0.000000 -17.623781 -1.597450 0.717061 -55.527799 -25.134202 4.868742 -174.613373 -64.810516 -175.948947 0.000000 0.000000 0.000000 12.044046 6.902446 1.046848 55.277859 13.139375 0.249785 140.043100 57.296486 112.531865 0.000000 0.000000 0.000000 
-0.242142 0.921348 1.750956 0.405926 -19.629933 -1.873933 -5.878969 -2.618829 -25.370438 2.535231 -0.596294 9.038983 2.119001 5.268682 7.512161 0.000000 0.000000 0.000000 5.687159 -1.356805 10.633278 0.221207 0.192164 4.220326 -5.987917 -8.696843 -8.620379 0.000000 0.000000 0.000000 -0.068540 -0.158193 4.689806 -2.377893 1.138416 -0.090729 3.994092 5.196466 8.860645 -1.447377 1.630518 -23.574482 0.000000 0.000000 0.000000 -17.426133 -1.417617 0.531196 -56.377879 -24.539168 4.738303 -174.922029 -63.377414 -175.606348 0.000000 0.000000 0.000000 12.877667 7.752346 1.413847 54.914103 13.725394 0.588901 143.473424 55.193161 115.690172 0.000000 0.000000 0.000000 
